<?xml version="1.0" encoding="UTF-8" standalone="no"?>
<!DOCTYPE svg PUBLIC "-//W3C//DTD SVG 1.1//EN" "http://www.w3.org/Graphics/SVG/1.1/DTD/svg11.dtd">
<svg xmlns="http://www.w3.org/2000/svg" version="1.1" viewBox="0.00 0.00 1128.00 1121.00">
<path fill="#ffffff" d="
  M 300.65 510.51
  C 292.26 510.74 273.72 511.23 267.34 504.90
  C 261.22 498.82 266.28 487.46 270.00 481.37
  C 286.15 454.93 310.85 446.13 340.22 441.39
  Q 340.72 441.30 340.62 441.80
  Q 338.33 453.54 336.50 465.40
  C 335.16 474.02 344.09 469.15 348.19 467.52
  Q 348.77 467.29 349.00 467.86
  L 349.97 470.24
  Q 350.30 471.04 349.50 471.38
  L 321.95 482.82
  A 0.52 0.52 0.0 0 1 321.24 482.26
  Q 322.97 471.48 323.95 460.76
  C 324.51 454.51 321.20 451.44 314.75 453.04
  C 301.25 456.41 289.44 462.67 281.38 473.84
  C 277.02 479.89 271.47 495.06 283.28 496.56
  Q 292.53 497.74 302.00 497.73
  A 1.04 1.03 2.7 0 0 303.03 496.80
  Q 303.96 487.19 300.95 478.05
  A 0.38 0.38 0.0 0 1 301.42 477.57
  C 310.78 480.35 311.08 489.08 311.33 497.19
  Q 311.35 497.76 311.92 497.73
  Q 322.28 497.20 332.56 497.63
  Q 341.39 498.00 346.05 500.08
  C 357.62 505.23 360.37 515.71 359.41 528.14
  C 357.37 554.68 335.96 580.97 310.90 589.93
  Q 298.82 594.25 284.87 592.87
  Q 267.99 591.19 258.13 576.06
  Q 257.83 575.60 257.35 575.88
  Q 238.01 587.08 216.01 590.72
  C 171.33 598.12 131.22 572.09 126.19 525.73
  C 124.56 510.77 125.62 494.23 131.39 480.38
  C 140.25 459.07 157.82 444.53 181.43 443.90
  C 208.57 443.17 231.09 458.96 241.93 483.51
  Q 247.77 496.73 252.08 512.46
  Q 257.62 532.65 263.40 552.78
  Q 264.51 556.65 267.22 562.70
  Q 267.44 563.20 267.92 562.92
  Q 271.51 560.85 274.32 558.07
  C 286.08 546.40 298.28 528.21 301.24 511.20
  A 0.59 0.59 0.0 0 0 300.65 510.51
  Z
  M 189.60 449.98
  Q 175.11 447.17 162.73 452.06
  C 142.58 460.03 134.90 480.34 134.11 500.41
  Q 132.41 543.44 165.38 569.46
  C 191.86 590.36 227.42 588.98 255.35 571.88
  Q 255.79 571.61 255.59 571.14
  C 247.43 551.68 241.91 526.46 237.70 512.00
  C 230.56 487.48 218.35 455.56 189.60 449.98
  Z
  M 294.81 588.50
  C 323.15 589.73 346.85 562.64 348.29 535.86
  C 348.97 523.26 345.76 513.92 332.25 511.85
  Q 320.43 510.04 309.99 510.55
  Q 309.50 510.57 309.35 511.05
  Q 298.41 545.67 269.72 567.75
  Q 269.32 568.06 269.52 568.51
  C 274.42 579.76 281.92 587.94 294.81 588.50
  Z"
/>
<path fill="#ffffff" d="
  M 381.24 555.34
  C 395.05 538.71 403.55 527.53 417.86 516.46
  C 421.92 513.32 440.13 498.88 444.03 507.74
  C 445.87 511.95 440.29 523.55 437.51 529.31
  Q 433.38 537.87 430.87 543.87
  C 425.61 556.43 420.52 566.12 417.57 577.77
  A 2.80 2.80 0.0 0 0 418.71 580.77
  C 421.07 582.35 427.56 578.60 429.83 577.32
  Q 430.26 577.08 430.56 577.47
  L 431.80 579.01
  A 0.78 0.77 57.0 0 1 431.56 580.18
  Q 418.44 586.99 404.28 591.34
  Q 402.47 591.89 402.85 590.03
  C 407.49 567.51 418.06 546.21 427.55 525.53
  C 428.50 523.48 429.04 520.75 428.73 518.77
  A 2.35 2.35 0.0 0 0 425.54 516.97
  C 417.40 520.23 409.68 528.21 403.94 534.67
  Q 383.15 558.08 368.97 585.97
  Q 368.71 586.48 368.15 586.56
  Q 362.05 587.52 356.43 590.15
  Q 355.60 590.54 355.94 589.68
  Q 375.40 541.57 394.50 493.35
  Q 401.03 476.89 403.67 466.06
  Q 404.22 463.82 402.58 461.30
  Q 402.32 460.90 401.86 460.76
  C 399.03 459.92 395.80 461.59 393.09 462.36
  A 0.61 0.61 0.0 0 1 392.34 461.94
  L 391.75 459.86
  Q 391.61 459.38 392.08 459.21
  Q 405.67 454.48 418.18 447.34
  A 0.39 0.39 0.0 0 1 418.77 447.65
  Q 419.17 454.72 417.56 460.51
  Q 413.24 475.98 406.17 493.23
  Q 393.49 524.15 380.92 555.15
  Q 380.47 556.27 381.24 555.34
  Z"
/>
<path fill="#ffffff" d="
  M 543.02 532.20
  C 550.73 524.17 569.52 501.62 581.41 504.06
  Q 585.51 504.91 586.48 504.85
  Q 593.74 504.40 597.28 497.06
  Q 600.84 489.68 602.01 486.85
  Q 602.17 486.46 602.60 486.41
  L 613.49 485.29
  A 0.51 0.51 0.0 0 1 614.01 485.99
  L 606.35 504.41
  A 0.43 0.42 -78.8 0 0 606.74 505.00
  L 620.35 505.03
  A 0.43 0.42 -77.2 0 1 620.73 505.64
  L 619.72 507.78
  Q 619.50 508.25 618.98 508.25
  L 605.05 508.25
  Q 604.60 508.25 604.42 508.66
  Q 592.90 534.80 581.40 560.89
  C 578.98 566.37 574.01 575.85 575.09 580.58
  C 576.98 588.79 590.86 580.49 594.51 578.11
  A 0.68 0.68 0.0 0 1 595.50 578.39
  L 596.14 579.78
  A 0.85 0.85 0.0 0 1 595.87 580.82
  C 589.47 585.50 571.44 595.69 563.56 590.46
  C 558.56 587.15 562.32 579.17 564.37 574.33
  Q 575.85 547.15 587.63 520.10
  Q 590.06 514.53 592.15 508.82
  Q 592.36 508.25 591.75 508.25
  L 583.32 508.25
  Q 582.81 508.25 582.64 508.74
  L 580.25 515.40
  Q 580.08 515.88 579.58 515.75
  C 568.62 512.85 560.14 518.26 553.12 526.11
  Q 540.53 540.18 533.88 556.88
  Q 528.48 570.43 523.19 587.95
  A 0.83 0.82 0.5 0 1 522.61 588.51
  L 510.74 591.66
  A 0.52 0.52 0.0 0 1 510.12 590.96
  Q 522.28 561.05 532.15 530.29
  C 534.48 523.00 534.78 515.83 524.20 521.90
  Q 523.66 522.21 523.38 521.65
  L 522.32 519.53
  Q 522.03 518.95 522.62 518.68
  Q 535.99 512.51 547.79 503.72
  A 0.75 0.75 0.0 0 1 548.99 504.28
  C 549.44 513.77 545.39 523.00 542.59 531.95
  Q 542.27 532.98 543.02 532.20
  Z"
/>
<path fill="#ffffff" d="
  M 484.10 569.99
  C 492.13 560.45 499.99 546.89 500.02 534.27
  C 500.03 530.35 497.08 526.66 492.88 527.04
  C 486.34 527.63 480.46 537.45 478.48 542.81
  A 0.56 0.56 0.0 0 1 477.40 542.67
  Q 476.63 535.78 480.95 530.95
  C 485.13 526.27 492.58 520.03 499.74 519.25
  C 508.01 518.35 512.90 526.74 512.42 534.01
  C 510.91 556.88 484.50 579.48 465.91 588.69
  C 452.17 595.50 437.71 591.06 439.57 573.14
  C 440.73 562.03 445.76 551.58 452.51 542.27
  C 465.77 523.97 486.07 510.29 508.23 505.45
  Q 510.42 504.97 515.57 505.11
  A 1.76 1.73 -21.0 0 1 516.77 505.63
  Q 520.38 509.29 517.27 513.85
  Q 516.99 514.26 516.51 514.19
  Q 501.42 512.11 488.04 516.83
  C 469.71 523.29 459.10 542.39 453.75 560.26
  C 451.44 567.99 448.97 581.04 459.48 584.28
  C 468.41 587.04 478.81 576.26 484.10 569.99
  Z"
/>
<path fill="#ffffff" d="
  M 726.08 560.73
  L 726.16 573.89
  A 0.62 0.62 0.0 0 0 726.78 574.51
  L 782.27 574.52
  A 0.62 0.62 0.0 0 1 782.89 575.14
  L 782.85 588.35
  A 0.62 0.62 0.0 0 1 782.23 588.97
  L 708.68 588.98
  A 0.62 0.62 0.0 0 1 708.06 588.36
  L 708.04 518.64
  A 0.62 0.62 0.0 0 1 708.66 518.02
  L 782.26 518.02
  A 0.62 0.62 0.0 0 1 782.88 518.64
  L 782.88 531.77
  A 0.62 0.62 0.0 0 1 782.26 532.39
  L 726.73 532.37
  A 0.62 0.62 0.0 0 0 726.11 532.99
  L 726.03 546.46
  A 0.62 0.62 0.0 0 0 726.65 547.08
  L 782.26 547.04
  A 0.62 0.62 0.0 0 1 782.88 547.66
  L 782.88 559.57
  A 0.62 0.62 0.0 0 1 782.26 560.19
  L 726.70 560.11
  A 0.62 0.62 0.0 0 0 726.08 560.73
  Z"
/>
<path fill="#ffffff" d="
  M 923.97 533.82
  L 923.98 588.07
  A 0.68 0.68 0.0 0 1 923.30 588.75
  L 906.44 588.77
  A 0.68 0.68 0.0 0 1 905.76 588.09
  L 905.76 533.82
  A 0.68 0.68 0.0 0 0 905.08 533.14
  L 872.01 533.20
  A 0.68 0.68 0.0 0 1 871.33 532.52
  L 871.33 518.69
  A 0.68 0.68 0.0 0 1 872.01 518.01
  L 957.69 518.02
  A 0.68 0.68 0.0 0 1 958.37 518.70
  L 958.38 532.44
  A 0.68 0.68 0.0 0 1 957.70 533.12
  L 924.65 533.14
  A 0.68 0.68 0.0 0 0 923.97 533.82
  Z"
/>
<path fill="#ffffff" d="
  M 682.02 545.52
  L 682.00 518.85
  A 0.56 0.56 0.0 0 1 682.56 518.29
  L 699.55 518.33
  A 0.56 0.56 0.0 0 1 700.11 518.89
  L 700.11 588.47
  A 0.56 0.56 0.0 0 1 699.55 589.03
  L 682.57 589.04
  A 0.56 0.56 0.0 0 1 682.01 588.48
  L 682.02 561.94
  A 0.56 0.56 0.0 0 0 681.46 561.38
  L 624.69 561.39
  A 0.56 0.56 0.0 0 0 624.13 561.95
  L 624.14 588.51
  A 0.56 0.56 0.0 0 1 623.58 589.07
  L 606.58 589.06
  A 0.56 0.56 0.0 0 1 606.02 588.50
  L 606.01 518.87
  A 0.56 0.56 0.0 0 1 606.57 518.31
  L 623.62 518.29
  A 0.56 0.56 0.0 0 1 624.18 518.85
  L 624.05 545.49
  A 0.56 0.56 0.0 0 0 624.61 546.05
  L 681.46 546.08
  A 0.56 0.56 0.0 0 0 682.02 545.52
  Z"
/>
<path fill="#ffffff" d="
  M 858.93 573.89
  L 817.16 573.86
  A 0.47 0.47 0.0 0 0 816.74 574.12
  L 809.37 588.71
  A 0.47 0.47 0.0 0 1 808.95 588.97
  L 790.11 588.97
  A 0.47 0.47 0.0 0 1 789.69 588.28
  L 825.74 518.57
  A 0.47 0.47 0.0 0 1 826.16 518.32
  L 850.05 518.39
  A 0.47 0.47 0.0 0 1 850.47 518.64
  L 886.53 588.28
  A 0.47 0.47 0.0 0 1 886.11 588.97
  L 867.17 588.99
  A 0.47 0.47 0.0 0 1 866.75 588.73
  L 859.35 574.15
  A 0.47 0.47 0.0 0 0 858.93 573.89
  Z
  M 823.91 559.75
  A 0.59 0.59 0.0 0 0 824.44 560.60
  L 851.64 560.60
  A 0.59 0.59 0.0 0 0 852.17 559.75
  L 838.57 532.67
  A 0.59 0.59 0.0 0 0 837.51 532.67
  L 823.91 559.75
  Z"
/>
<path fill="#ffffff" d="
  M 720.91 664.25
  C 720.95 659.16 706.57 659.36 703.00 659.32
  Q 690.50 659.18 681.90 656.39
  Q 672.54 653.35 672.75 644.01
  C 673.09 628.17 701.03 629.62 711.76 631.05
  C 720.65 632.25 730.06 635.56 730.01 646.16
  Q 730.01 646.67 729.50 646.67
  L 719.07 646.67
  Q 718.63 646.67 718.48 646.25
  C 716.34 640.28 711.94 640.51 705.61 640.09
  C 701.36 639.80 685.93 638.55 684.94 644.08
  C 684.19 648.31 689.42 649.04 693.00 649.32
  Q 702.62 650.07 712.25 650.77
  C 721.79 651.46 734.57 653.30 732.74 666.52
  C 731.63 674.53 725.55 677.28 717.89 678.49
  Q 704.98 680.53 690.75 678.98
  C 680.83 677.90 671.18 674.84 671.07 663.10
  A 0.52 0.51 90.0 0 1 671.58 662.58
  L 682.43 662.53
  Q 682.99 662.53 683.10 663.08
  Q 684.05 667.97 688.75 668.81
  Q 702.06 671.16 715.50 669.49
  Q 720.88 668.82 720.91 664.25
  Z"
/>
<path fill="#ffffff" d="
  M 355.23 665.39
  C 360.48 670.05 371.42 669.72 377.76 668.04
  C 384.98 666.12 386.98 661.33 387.03 654.01
  Q 387.10 642.60 387.03 631.20
  Q 387.03 630.61 387.62 630.60
  L 398.56 630.53
  Q 399.17 630.53 399.18 631.14
  Q 399.39 646.99 399.07 657.23
  C 398.40 678.75 377.08 680.49 361.06 678.76
  Q 344.93 677.02 340.52 664.28
  Q 339.00 659.90 339.02 649.12
  Q 339.05 640.11 339.03 631.12
  Q 339.03 630.58 339.58 630.57
  L 350.66 630.48
  A 0.59 0.58 0.5 0 1 351.25 631.07
  Q 351.21 642.46 351.18 653.76
  C 351.17 658.89 351.69 662.24 355.23 665.39
  Z"
/>
<path fill="#ffffff" d="
  M 455.34 631.05
  L 466.49 631.06
  A 0.47 0.47 0.0 0 1 466.96 631.53
  L 466.94 678.51
  A 0.47 0.47 0.0 0 1 466.47 678.98
  L 450.68 678.92
  A 0.47 0.47 0.0 0 1 450.33 678.77
  L 417.95 643.53
  A 0.47 0.47 0.0 0 0 417.13 643.85
  L 417.21 678.51
  A 0.47 0.47 0.0 0 1 416.74 678.98
  L 405.50 678.95
  A 0.47 0.47 0.0 0 1 405.03 678.48
  L 405.04 631.53
  A 0.47 0.47 0.0 0 1 405.51 631.06
  L 421.46 631.09
  A 0.47 0.47 0.0 0 1 421.81 631.24
  L 454.05 666.34
  A 0.47 0.47 0.0 0 0 454.87 666.02
  L 454.87 631.52
  A 0.47 0.47 0.0 0 1 455.34 631.05
  Z"
/>
<rect fill="#ffffff" x="472.02" y="631.06" width="12.14" height="47.92" rx="0.65"/>
<path fill="#ffffff" d="
  M 520.75 669.06
  L 539.52 631.37
  A 0.54 0.54 0.0 0 1 540.00 631.07
  L 552.46 631.05
  A 0.54 0.54 0.0 0 1 552.94 631.84
  L 528.66 678.67
  A 0.54 0.54 0.0 0 1 528.18 678.96
  L 512.31 678.93
  A 0.54 0.54 0.0 0 1 511.83 678.64
  L 487.56 631.83
  A 0.54 0.54 0.0 0 1 488.04 631.04
  L 500.51 631.06
  A 0.54 0.54 0.0 0 1 500.99 631.36
  L 519.79 669.06
  A 0.54 0.54 0.0 0 0 520.75 669.06
  Z"
/>
<path fill="#ffffff" d="
  M 568.99 659.48
  L 569.31 668.79
  A 0.53 0.53 0.0 0 0 569.84 669.30
  L 607.22 669.30
  A 0.53 0.53 0.0 0 1 607.75 669.83
  L 607.74 678.44
  A 0.53 0.53 0.0 0 1 607.21 678.97
  L 557.57 678.96
  A 0.53 0.53 0.0 0 1 557.04 678.43
  L 557.02 631.57
  A 0.53 0.53 0.0 0 1 557.55 631.04
  L 607.22 631.04
  A 0.53 0.53 0.0 0 1 607.75 631.57
  L 607.74 640.20
  A 0.53 0.53 0.0 0 1 607.21 640.73
  L 569.58 640.62
  A 0.53 0.53 0.0 0 0 569.04 641.17
  L 569.27 649.52
  A 0.53 0.53 0.0 0 0 569.80 650.04
  L 607.22 650.02
  A 0.53 0.53 0.0 0 1 607.75 650.55
  L 607.73 658.44
  A 0.53 0.53 0.0 0 1 607.20 658.97
  L 569.52 658.93
  A 0.53 0.53 0.0 0 0 568.99 659.48
  Z"
/>
<path fill="#ffffff" d="
  M 624.10 666.42
  L 624.14 677.95
  A 0.72 0.71 -90.0 0 1 623.43 678.67
  L 612.50 678.71
  Q 612.03 678.71 612.03 678.25
  L 612.02 631.55
  Q 612.02 631.13 612.43 631.13
  Q 642.54 630.78 651.22 631.15
  C 662.15 631.61 668.94 640.29 667.82 650.82
  Q 666.88 659.63 658.12 664.38
  Q 657.65 664.63 657.93 665.09
  L 665.62 677.64
  Q 666.31 678.76 664.99 678.73
  L 652.83 678.45
  A 1.68 1.67 74.7 0 1 651.44 677.65
  L 644.59 666.42
  A 0.97 0.96 -15.3 0 0 643.76 665.95
  L 624.58 665.94
  Q 624.09 665.94 624.10 666.42
  Z
  M 624.17 642.18
  L 624.15 654.82
  A 0.87 0.87 0.0 0 0 625.02 655.69
  L 648.68 655.74
  A 7.13 6.13 0.1 0 0 655.82 649.62
  L 655.82 647.50
  A 7.13 6.13 0.1 0 0 648.70 641.36
  L 625.04 641.31
  A 0.87 0.87 0.0 0 0 624.17 642.18
  Z"
/>
<path fill="#ffffff" d="
  M 749.78 669.27
  L 787.29 669.29
  A 0.47 0.47 0.0 0 1 787.76 669.76
  L 787.72 678.49
  A 0.47 0.47 0.0 0 1 787.25 678.96
  L 737.48 678.97
  A 0.47 0.47 0.0 0 1 737.01 678.50
  L 737.03 631.51
  A 0.47 0.47 0.0 0 1 737.50 631.04
  L 787.27 631.04
  A 0.47 0.47 0.0 0 1 787.74 631.51
  L 787.75 640.27
  A 0.47 0.47 0.0 0 1 787.28 640.74
  L 749.61 640.64
  A 0.47 0.47 0.0 0 0 749.14 641.11
  L 749.21 649.56
  A 0.47 0.47 0.0 0 0 749.68 650.03
  L 787.28 650.01
  A 0.47 0.47 0.0 0 1 787.75 650.48
  L 787.73 658.51
  A 0.47 0.47 0.0 0 1 787.26 658.98
  L 749.51 658.95
  A 0.47 0.47 0.0 0 0 749.04 659.43
  L 749.31 668.81
  A 0.47 0.47 0.0 0 0 749.78 669.27
  Z"
/>
</svg>
